<svg xmlns="http://www.w3.org/2000/svg" width="289" height="114" fill="none">
  <g clip-path="url(#a)">
    <path fill="#58162B" d="M24.0003 80.3023c-6.88 0-11.9866-1.56-15.31997-4.68-3.30666-3.12-4.96-7.6533-4.96-13.6v-4.76c0-5.8934 1.54667-10.4134 4.64-13.56 3.11997-3.1467 7.65337-4.72 13.59997-4.72 4 0 7.3334.6933 10 2.08 2.6667 1.3867 4.6667 3.36 6 5.92 1.36 2.56 2.04 5.6266 2.04 9.2v1.36c0 .9867-.0533 1.9867-.16 3-.08 1.0133-.2 1.9733-.36 2.88h-9.92c.08-1.52.1334-2.9467.16-4.28.0267-1.3333.04-2.5333.04-3.6 0-1.7867-.28-3.28-.84-4.48-.56-1.2267-1.4133-2.16-2.56-2.8-1.1466-.64-2.6133-.96-4.4-.96-2.64 0-4.5866.72-5.84 2.16-1.2266 1.44-1.84 3.5067-1.84 6.2v3.6l.04 1.2v3c0 1.1467.1867 2.2133.56 3.2.3734.9867 1 1.8533 1.88 2.6.88.72 2.0667 1.2933 3.56 1.72 1.4934.4 3.3734.6 5.64.6 2.4534 0 4.7867-.2533 7-.76 2.24-.5333 4.3734-1.24 6.4-2.12l-.92 8.48c-1.7866.96-3.9066 1.72-6.36 2.28-2.4266.56-5.12.84-8.08.84Zm-14.47997-16.88v-7.08H37.2803v7.08H9.52033Zm81.83497 15.92v-23.72c0-1.4934-.1866-2.7867-.56-3.88-.3733-1.12-1-1.9733-1.88-2.56-.88-.6133-2.08-.92-3.6-.92-1.3333 0-2.5066.2667-3.52.8-.9866.5067-1.8 1.2-2.44 2.08-.64.8533-1.1066 1.84-1.4 2.96l-1.16-5.64h1.08c.4267-1.7067 1.1067-3.2533 2.04-4.64.96-1.4134 2.2667-2.5334 3.92-3.36 1.68-.8534 3.8-1.28 6.36-1.28 2.8267 0 5.1334.56 6.92 1.68 1.7867 1.0933 3.0937 2.7466 3.9197 4.96.854 2.1866 1.28 4.9067 1.28 8.16v25.36H91.3553Zm-48.32 0v-39.24h10.96l-.4 10.16.44.4v28.68h-11Zm24.16 0v-23.72c0-1.4934-.1866-2.7867-.56-3.88-.3733-1.12-1-1.9733-1.88-2.56-.88-.6133-2.0666-.92-3.56-.92-1.36 0-2.5333.2667-3.52.8-.9866.5067-1.8 1.2-2.44 2.08-.64.8533-1.12 1.84-1.44 2.96l-1.72-5.64h2c.4-1.76 1.0667-3.3334 2-4.72.9334-1.3867 2.2134-2.4933 3.84-3.32 1.6267-.8267 3.6667-1.24 6.12-1.24 3.6534 0 6.4.9466 8.24 2.84 1.8667 1.8667 3.04 4.5867 3.52 8.16.08.5067.16 1.1333.24 1.88.08.72.12 1.3867.12 2v25.28h-10.96Zm87.7377 0v-23.72c0-1.4934-.186-2.7867-.56-3.88-.373-1.12-1-1.9733-1.88-2.56-.88-.6133-2.08-.92-3.6-.92-1.333 0-2.506.2667-3.52.8-.986.5067-1.8 1.2-2.44 2.08-.64.8533-1.106 1.84-1.4 2.96l-1.16-5.64h1.08c.427-1.7067 1.107-3.2533 2.04-4.64.96-1.4134 2.267-2.5334 3.92-3.36 1.68-.8534 3.8-1.28 6.36-1.28 2.827 0 5.134.56 6.92 1.68 1.787 1.0933 3.094 2.7466 3.92 4.96.854 2.1866 1.28 4.9067 1.28 8.16v25.36h-10.96Zm-48.32 0v-39.24h10.96l-.4 10.16.44.4v28.68h-11Zm24.16 0v-23.72c0-1.4934-.186-2.7867-.56-3.88-.373-1.12-1-1.9733-1.88-2.56-.88-.6133-2.066-.92-3.56-.92-1.36 0-2.533.2667-3.52.8-.986.5067-1.8 1.2-2.44 2.08-.64.8533-1.12 1.84-1.44 2.96l-1.72-5.64h2c.4-1.76 1.067-3.3334 2-4.72.934-1.3867 2.214-2.4933 3.84-3.32 1.627-.8267 3.667-1.24 6.12-1.24 3.654 0 6.4.9466 8.24 2.84 1.867 1.8667 3.04 4.5867 3.52 8.16.08.5067.16 1.1333.24 1.88.08.72.12 1.3867.12 2v25.28h-10.96Zm62.099 0 .36-9.68-.28-.8v-12.28l-.04-1.68c0-2.4267-.68-4.2133-2.04-5.36-1.36-1.1467-3.6-1.72-6.72-1.72-2.694 0-5.227.3467-7.6 1.04-2.347.6933-4.534 1.4933-6.56 2.4l.92-8.64c1.2-.5867 2.56-1.1467 4.08-1.68 1.546-.56 3.253-1 5.12-1.32 1.866-.3467 3.88-.52 6.04-.52 3.306 0 6.08.3866 8.32 1.16 2.24.7733 4.026 1.88 5.36 3.32 1.36 1.4133 2.333 3.12 2.92 5.12.613 1.9733.92 4.1733.92 6.6v24.04h-10.8Zm-12.72.92c-3.92 0-6.894-.9733-8.92-2.92-2.027-1.9733-3.04-4.76-3.04-8.36v-1.12c0-3.84 1.173-6.6667 3.52-8.48 2.373-1.84 6.12-3.1067 11.24-3.8l10.92-1.48.64 6.88-9.92 1.4c-2.134.2933-3.64.8-4.52 1.52-.854.72-1.28 1.7867-1.28 3.2v.36c0 1.36.426 2.4267 1.28 3.2.88.7733 2.253 1.16 4.12 1.16 1.653 0 3.08-.2533 4.28-.76 1.2-.5067 2.173-1.1867 2.92-2.04.773-.88 1.333-1.84 1.68-2.88l1.56 5.04h-1.88c-.4 1.68-1.067 3.2133-2 4.6-.934 1.36-2.254 2.4533-3.96 3.28-1.68.8-3.894 1.2-6.64 1.2Z"/>
    <path fill="#793065" d="M269.255 25.578c.042-.3972.499-.5619.788-.3454.041.031.079.0697.112.1166l3.316 4.7611c.077.1106.197.1848.33.2059.008.0014.017.0025.026.0035l5.799.5991c.457.0473.608.6339.23.8936l-4.794 3.2932c-.112.0765-.186.1948-.208.3269-.001.0088-.002.0177-.003.0266l-.604 5.758c-.047.454-.638.6042-.899.2288l-3.317-4.7611c-.082-.118-.212-.1945-.356-.2093l-5.798-.5992c-.4-.0414-.566-.4956-.348-.7825.031-.041.07-.0786.117-.111l4.795-3.2933c.119-.0816.196-.2107.211-.3535l.603-5.758Z"/>
    <path fill="#B42D4F" d="M269.255 25.578c.042-.3972.499-.5619.788-.3454.041.031.079.0697.112.1166l3.316 4.7611c.077.1106.197.1848.33.2059.008.0014.017.0025.026.0035l5.799.5991c.457.0473.608.6339.23.8936l-4.794 3.2932c-.112.0765-.186.1948-.208.3269-.001.0088-.002.0177-.003.0266l-.604 5.758c-.047.454-.638.6042-.899.2288l-3.317-4.7611c-.082-.118-.212-.1945-.356-.2093l-5.798-.5992c-.4-.0414-.566-.4956-.348-.7825.031-.041.07-.0786.117-.111l4.795-3.2933c.119-.0816.196-.2107.211-.3535l.603-5.758Z"/>
    <path fill="#793065" fill-rule="evenodd" d="M254.614 17.3042c-22.237 0-33.75 14.0283-33.75 31.3331l.234 15.2291c.313 20.3898 19.06 35.2971 38.992 30.3863 3.452-.8506 6.405-1.5475 8.976-2.0397l-3.753-5.2581c1.665-1.5132 3.868-4.1733 5.246-6.864-3.024 2.5346-7.225 4.122-7.225 4.122-2.724.9703-5.66 1.4989-8.72 1.4989-14.261 0-25.822-11.4798-25.822-25.6409v-6.4971c0-2.1923 1.462-4.1291 3.596-4.6925.66-.1743 1.31-.3417 1.952-.5021l-.014.0008.163-.0379c.632-.1573 1.255-.308 1.871-.4519.645-.235 1.132-.7853 1.276-1.4644l1.55-7.3099.355 5.75c.071 1.1481 1.1 1.9999 2.25 1.8617l.535-.0643c12.122-2.1158 21.597-1.2553 34.529 2.2097 2.128.57 3.581 2.5034 3.581 4.6914v6.5065c0 5.5242-1.76 10.6404-4.752 14.8263l-4.35 16.9211c6.379-.9821 10.2-.3344 13.818 2.97 1.142 1.0435 3.212.3461 3.212-1.1951V48.6374c0-8.4395-2.836-16.0996-8.274-21.7333l-.033.3169c-.17 1.6274-2.288 2.1659-3.225.8202l-.873-1.2538-1.527-.1578c-1.639-.1693-2.182-2.2719-.827-3.2027l1.199-.8229c-5.282-3.3471-12.047-5.2998-20.19-5.2998Zm16.865 7.1356c-1.112-1.596-3.623-.9573-3.825.9728l-.551 5.2517-4.373 3.0037c-1.607 1.1039-.964 3.5975.98 3.7984l5.289.5465 3.025 4.3424c1.111 1.596 3.623.9574 3.825-.9728l.55-5.2517 4.373-3.0036c1.607-1.104.964-3.5976-.979-3.7985l-5.289-.5465-3.025-4.3424Z" clip-rule="evenodd"/>
    <path fill="#B42D4F" fill-rule="evenodd" d="M254.614 17.3042c-22.237 0-33.75 14.0283-33.75 31.3331l.234 15.2291c.313 20.3898 19.06 35.2971 38.992 30.3863 3.452-.8506 6.405-1.5475 8.976-2.0397l-3.753-5.2581c1.665-1.5132 3.868-4.1733 5.246-6.864-3.024 2.5346-7.225 4.122-7.225 4.122-2.724.9703-5.66 1.4989-8.72 1.4989-14.261 0-25.822-11.4798-25.822-25.6409v-6.4971c0-2.1923 1.462-4.1291 3.596-4.6925.66-.1743 1.31-.3417 1.952-.5021l-.014.0008.163-.0379c.632-.1573 1.255-.308 1.871-.4519.645-.235 1.132-.7853 1.276-1.4644l1.55-7.3099.355 5.75c.071 1.1481 1.1 1.9999 2.25 1.8617l.535-.0643c12.122-2.1158 21.597-1.2553 34.529 2.2097 2.128.57 3.581 2.5034 3.581 4.6914v6.5065c0 5.5242-1.76 10.6404-4.752 14.8263l-4.35 16.9211c6.379-.9821 10.2-.3344 13.818 2.97 1.142 1.0435 3.212.3461 3.212-1.1951V48.6374c0-8.4395-2.836-16.0996-8.274-21.7333l-.033.3169c-.17 1.6274-2.288 2.1659-3.225.8202l-.873-1.2538-1.527-.1578c-1.639-.1693-2.182-2.2719-.827-3.2027l1.199-.8229c-5.282-3.3471-12.047-5.2998-20.19-5.2998Zm16.865 7.1356c-1.112-1.596-3.623-.9573-3.825.9728l-.551 5.2517-4.373 3.0037c-1.607 1.1039-.964 3.5975.98 3.7984l5.289.5465 3.025 4.3424c1.111 1.596 3.623.9574 3.825-.9728l.55-5.2517 4.373-3.0036c1.607-1.104.964-3.5976-.979-3.7985l-5.289-.5465-3.025-4.3424Z" clip-rule="evenodd"/>
    <path fill="#793065" d="M274.521 24.7417c-.118.0812-.081.2581.05.2928.009.0024.018.004.027.005l2.188.2261c.042.0043.08.0244.108.0557.004.0045.007.0092.011.0141l1.251 1.7964c.087.1251.284.0751.3-.0763l.228-2.1725c.005-.0476.03-.0907.07-.1179l1.809-1.2425c.126-.0866.076-.2821-.077-.2979l-2.188-.2261c-.048-.0049-.091-.0304-.118-.0698l-1.252-1.7964c-.087-.1251-.284-.075-.3.0763l-.227 2.1726c-.005.0475-.031.0906-.071.1178l-1.809 1.2426Z"/>
    <path fill="#B42D4F" d="M274.521 24.7417c-.118.0812-.081.2581.05.2928.009.0024.018.004.027.005l2.188.2261c.042.0043.08.0244.108.0557.004.0045.007.0092.011.0141l1.251 1.7964c.087.1251.284.0751.3-.0763l.228-2.1725c.005-.0476.03-.0907.07-.1179l1.809-1.2425c.126-.0866.076-.2821-.077-.2979l-2.188-.2261c-.048-.0049-.091-.0304-.118-.0698l-1.252-1.7964c-.087-.1251-.284-.075-.3.0763l-.227 2.1726c-.005.0475-.031.0906-.071.1178l-1.809 1.2426Z"/>
    <path fill="#793065" d="M241.834 62c2.232 0 4.04-1.6791 4.04-3.7505s-1.808-3.7506-4.04-3.7506c-2.231 0-4.039 1.6792-4.039 3.7506 0 2.0714 1.808 3.7505 4.039 3.7505Z"/>
    <path fill="#B42D4F" d="M241.834 62c2.232 0 4.04-1.6791 4.04-3.7505s-1.808-3.7506-4.04-3.7506c-2.231 0-4.039 1.6792-4.039 3.7506 0 2.0714 1.808 3.7505 4.039 3.7505Z"/>
    <path fill="#793065" d="m262.292 68.1941-14.62 2.4345c-.58.0964-.863.7561-.533 1.2381l2.302 3.3581c.171.2491.473.3812.774.3417 8.079-1.0613 10.788-1.9449 12.915-6.2979.275-.5628-.216-1.1779-.838-1.0745Z"/>
    <path fill="#B42D4F" d="m262.292 68.1941-14.62 2.4345c-.58.0964-.863.7561-.533 1.2381l2.302 3.3581c.171.2491.473.3812.774.3417 8.079-1.0613 10.788-1.9449 12.915-6.2979.275-.5628-.216-1.1779-.838-1.0745Z"/>
    <path fill="#793065" d="M260.318 59.3059c2.278-1.2141 3.807-1.6757 5.125-1.6561 1.298.0193 2.573.5088 4.347 1.6151.565.3521 1.31.183 1.665-.3778.354-.5608.184-1.3009-.381-1.653-1.916-1.1951-3.644-1.953-5.595-1.9821-1.932-.0287-3.9.6604-6.303 1.941-.588.3132-.808 1.0401-.493 1.6235.315.5835 1.047.8026 1.635.4894Z"/>
    <path fill="#B42D4F" d="M260.318 59.3059c2.278-1.2141 3.807-1.6757 5.125-1.6561 1.298.0193 2.573.5088 4.347 1.6151.565.3521 1.31.183 1.665-.3778.354-.5608.184-1.3009-.381-1.653-1.916-1.1951-3.644-1.953-5.595-1.9821-1.932-.0287-3.9.6604-6.303 1.941-.588.3132-.808 1.0401-.493 1.6235.315.5835 1.047.8026 1.635.4894Z"/>
  </g>
  <defs>
    <clipPath id="a">
      <path fill="#fff" d="M.840332.342285h287.523v113H.840332z"/>
    </clipPath>
  </defs>
</svg>
